<?xml version="1.0" encoding="UTF-8"?>
<svg xmlns="http://www.w3.org/2000/svg" width="2000" height="1028.75" viewBox="0 0 2000 1028.75">
  <!-- Red background (Avar flag base) -->
  <path 
    d="M 0,514.375 0,0 l 1000.0001,0 1000,0 0,514.375 0,514.375 -1000,0 L 0,1028.75 0,514.375 Z" 
    fill="#e41c1f" />

  <!-- White Avar emblem/pattern -->
  <path 
    d="m 45.41826,989.64021 c 0,-0.79283 6.60938,-8.42337 14.6875,-16.95675 49.14226,-51.91208 73.39775,-76.65795 74.7915,-76.30367 2.08531,0.53006 89.271,91.77873 89.271,93.43112 0,0.76485 -35.58571,1.27078 -89.375,1.27078 -61.43132,0 -89.375,-0.45065 -89.375,-1.44148 z m 191.25,0.20087 c 0,-0.68236 4.12172,-5.48324 9.15939,-10.66879 5.03766,-5.18545 25.2893,-26.33868 45.00363,-47.00713 25.49913,-26.73327 36.34303,-37.26198 37.57241,-36.48039 2.93495,1.86581 89.51461,93.02044 89.51461,94.24475 0,0.63368 -40.7813,1.15217 -90.62504,1.15217 -52.96118,0 -90.625,-0.51563 -90.625,-1.24061 z m 192.70834,-0.0606 c 0.8482,-2.64784 88.5763,-93.68573 90.2799,-93.68573 2.0897,0 88.7005,90.28075 89.2909,93.0744 0.3421,1.61846 -13.4565,1.91229 -89.7916,1.91229 -56.0893,0 -90.0383,-0.49184 -89.7792,-1.30085 z m 192.2917,0.0639 c 0,-1.3024 86.4438,-92.26529 89.4829,-94.16083 1.2682,-0.79095 12.1984,9.86319 38.9525,37.96901 20.4542,21.48781 40.7052,42.64699 45.0021,47.02045 4.2968,4.37357 7.8125,8.50464 7.8125,9.18018 0,0.70879 -38.335,1.22838 -90.625,1.22838 -52.771,0 -90.625,-0.51673 -90.625,-1.23719 z m 192.5,0.0991 c 0,-1.92198 88.52926,-93.84861 90.38016,-93.84861 2.0077,0 88.792,90.44726 89.3989,93.1722 0.3317,1.48895 -15.7597,1.81449 -89.6875,1.81449 -49.5504,0 -90.09156,-0.5121 -90.09156,-1.13808 z m 192.5,-0.16927 c 0,-2.43375 87.5675,-92.99092 89.921,-92.99092 2.2584,0 90.079,90.80794 90.079,93.14323 0,0.63534 -40.5,1.15515 -90,1.15515 -55.9912,0 -90,-0.49404 -90,-1.30746 z m 191.25,0.10573 c 0,-0.66067 2.6719,-3.8813 5.9375,-7.15677 3.2656,-3.27547 23.2262,-24.1069 44.3568,-46.29205 21.1307,-22.18515 39.2561,-40.33669 40.2787,-40.33669 1.7407,0 89.5636,90.98392 90.4686,93.72483 0.2502,0.75747 -35.854,1.26186 -90.3125,1.26186 -50.8249,0 -90.7291,-0.52829 -90.7291,-1.20129 z m 192.5,-0.011 c 0,-2.3582 87.8154,-93.0885 90.0979,-93.0885 2.328,0 89.9021,90.60563 89.9021,93.01439 0,0.78236 -35.1631,1.284 -90,1.284 -50.897,0 -90,-0.52565 -90,-1.20989 z m 192.5,0.11311 c 0,-2.12319 88.8396,-94.07174 90.4734,-93.63937 1.987,0.52576 89.5266,92.10009 89.5266,93.65302 0,0.59569 -40.5,1.08313 -90,1.08313 -49.5,0 -90,-0.49349 -90,-1.09678 z m 192.5,-0.18722 c 0,-1.69214 87.0853,-92.896 89.196,-93.41438 1.795,-0.44084 88.6843,89.86105 89.3331,92.84192 0.3363,1.54435 -14.6352,1.85646 -89.0625,1.85646 -54.5068,-3.3e-4 -89.4666,-0.50208 -89.4666,-1.28433 z M 182.92751,894.37423 c -25.4825,-26.68912 -47.07633,-48.70852 -47.98628,-48.93175 -0.90995,-0.22334 -22.40925,21.30202 -47.77621,47.83408 -25.36697,26.53218 -46.68426,48.03607 -47.37176,47.78652 -0.73228,-0.26586 -1.39341,-8.48945 -1.59625,-19.85536 L 37.85075,901.8062 85.47493,851.80147 c 26.1933,-27.50264 48.06542,-50.18173 48.60472,-50.39796 0.5393,-0.21624 21.73298,21.35086 47.09708,47.92687 25.36409,26.57612 47.02832,48.87833 48.14273,49.5607 1.61219,0.98709 11.68642,-8.87633 49.30299,-48.27108 26.00222,-27.23139 47.9141,-49.51165 48.69306,-49.51165 0.77896,0 22.4252,21.9915 48.10279,48.86992 25.6775,26.87854 47.4402,48.86997 48.3614,48.86997 0.9212,0 19.2449,-18.42643 40.7193,-40.94758 21.4743,-22.52126 42.5272,-44.57636 46.7841,-49.01138 4.2569,-4.43504 8.3031,-7.8452 8.9914,-7.57816 0.6883,0.26704 21.9099,22.16724 47.1591,48.66715 25.2492,26.49991 46.7968,48.35401 47.8836,48.56458 1.1658,0.22587 21.1395,-19.67133 48.7124,-48.52581 25.705,-26.89979 47.3754,-48.90869 48.1564,-48.90869 0.7811,0 22.3908,21.9915 48.0216,48.86992 25.6308,26.87854 47.3445,48.86997 48.2527,48.86997 0.9082,0 22.67336,-22.00167 48.36706,-48.89276 25.6937,-26.89098 47.3487,-48.72757 48.1222,-48.52576 0.7734,0.20181 22.0789,22.04864 47.3453,48.54855 25.8386,27.10001 46.9334,48.18166 48.21144,48.18166 1.2769,0 22.2953,-20.97769 47.9784,-47.88541 25.1384,-26.33703 46.4408,-48.19595 47.3387,-48.57542 0.9452,-0.39945 21.3027,19.90727 48.3502,48.22961 25.6947,26.90574 47.4456,48.91953 48.3352,48.91953 0.8897,0 22.4695,-21.83659 47.9552,-48.52581 25.4856,-26.68912 47.1062,-48.52577 48.0458,-48.52577 0.9395,0 22.5585,21.83665 48.0421,48.52577 25.4836,26.68922 47.0453,48.52581 47.9149,48.52581 0.8695,0 22.6253,-21.99143 48.346,-48.86997 25.7207,-26.87842 47.2299,-48.86992 47.798,-48.86992 0.5681,0 21.7104,21.71783 46.9827,48.26179 25.2724,26.54396 46.8708,48.82954 47.9965,49.52369 1.6423,1.01264 11.3999,-8.52369 49.375,-48.25544 26.0305,-27.2347 47.6255,-49.52039 47.9888,-49.52382 0.3632,-0.002 21.2166,21.52064 46.3407,47.83124 25.124,26.31071 46.5967,48.66292 47.7167,49.67182 2.3703,2.13486 -0.2804,4.71739 58.7491,-57.23673 27.1239,-28.46779 38.9722,-40.05369 40.1804,-39.29027 4.5506,2.8756 93.3221,97.38623 93.9052,99.97614 1.196,5.31342 0.033,37.136 -1.3774,37.65096 -0.7287,0.26619 -21.7363,-20.90037 -46.6837,-47.03675 -24.9474,-26.13648 -46.0075,-47.51669 -46.8003,-47.51162 -0.7926,0 -22.4648,22.027 -48.1603,48.93758 -25.6957,26.91069 -47.431,48.74321 -48.301,48.51667 -0.87,-0.22654 -22.2684,-22.09363 -47.5519,-48.59354 -25.2835,-26.49991 -46.9036,-48.18165 -48.0448,-48.18165 -1.1412,0 -22.7728,21.68174 -48.0705,48.18165 -26.1197,27.36112 -46.9852,48.18166 -48.2858,48.18166 -1.3003,0 -22.324,-20.97362 -48.6415,-48.52581 -25.4934,-26.68912 -46.8019,-48.52581 -47.3525,-48.52581 -0.5505,0 -21.9967,21.99154 -47.6579,48.86996 -25.6613,26.87854 -47.4818,48.86997 -48.49,48.86997 -1.0081,0 -12.5885,-11.35425 -25.734,-25.23177 -49.1197,-51.85481 -68.6345,-71.81985 -70.1997,-71.81985 -0.8859,0 -22.2794,21.68174 -47.5413,48.18165 -25.2618,26.49991 -46.8391,48.36128 -47.9495,48.58077 -1.2267,0.24239 -20.3744,-18.79746 -48.8006,-48.52581 -25.73,-26.90872 -47.1911,-48.92492 -47.6914,-48.92492 -0.5002,0 -21.904,22.00222 -47.564,48.89375 -28.3258,29.68529 -47.4586,48.74915 -48.7012,48.52581 -1.12574,-0.20231 -22.43934,-21.73989 -47.36364,-47.86129 -24.9243,-26.12128 -46.1406,-48.02527 -47.1475,-48.67537 -1.3146,-0.84876 -3.4672,0.55142 -7.6364,4.9674 -41.056,43.48562 -88.26436,91.88963 -89.61996,91.88963 -0.9459,0 -22.5691,-21.83659 -48.0516,-48.52581 -25.4825,-26.68912 -47.0507,-48.70301 -47.9293,-48.91975 -0.8787,-0.21662 -22.6453,21.61996 -48.3702,48.52581 -25.725,26.90585 -47.5214,48.91975 -48.4366,48.91975 -0.9152,0 -22.5132,-21.83659 -47.9956,-48.52581 -25.4824,-26.68912 -47.0725,-48.52581 -47.978,-48.52581 -0.9055,0 -22.4914,21.83669 -47.9686,48.52581 -25.4772,26.68922 -46.9152,48.52581 -47.6399,48.52581 -0.7248,0 -22.1547,-21.83659 -47.6221,-48.52581 -25.46744,-26.68912 -47.38078,-48.72438 -48.69635,-48.9671 -1.7038,-0.31431 -15.84803,13.64647 -49.16353,48.52581 -25.72436,26.93194 -47.35576,48.9671 -48.06977,48.9671 -0.71403,0 -22.14754,-21.83659 -47.63004,-48.52581 z M 1016.0419,686.32979 c -2.2706,-1.82848 -2.2347,-2.05233 1.0111,-6.30041 4.1976,-5.49397 4.2956,-9.29201 0.2915,-11.30121 -4.3676,-2.19159 -8.8972,1.40255 -10.86,8.61709 -1.9355,7.11462 -5.5383,9.80066 -12.39934,9.24423 -7.422,-0.60192 -9.075,-3.87871 -4.5694,-9.05792 3.8188,-4.38968 4.2909,-7.42951 1.5437,-9.9404 -4.6341,-4.23555 -10.6412,2.45021 -10.6412,11.84342 0,3.83426 -3.3208,6.03779 -9.0991,6.03779 -4.5146,0 -8.4009,-3.36964 -8.4009,-7.28401 0,-4.40286 5.0104,-16.88852 8.8166,-21.9705 5.0841,-6.78821 12.8986,-11.69747 24.0137,-15.08614 7.67174,-2.33883 14.54764,-2.8919 45.29474,-3.64337 l 36.25,-0.88594 7.2204,-3.90469 c 3.9713,-2.14758 8.7525,-6.04867 10.625,-8.66913 6.8189,-9.54254 8.6372,-10.10618 35.4662,-10.99378 34.157,-1.13003 54.0554,-5.79445 65.9836,-15.4673 5.3756,-4.35913 9.7754,-4.28681 19.7229,0.32416 6.7696,3.13788 18.8898,7.13577 29.4194,9.70406 1.945,0.47439 3.4375,1.76537 3.4375,2.97327 0,2.89515 -7.0255,13.95563 -9.965,15.68813 -1.4291,0.84231 -15.2557,1.39725 -34.813,1.39725 -30.9899,0 -32.9304,0.15577 -43.3442,3.47926 -11.9275,3.80657 -18.2917,8.03199 -26.8778,17.84511 -9.9542,11.37671 -14.7839,12.6398 -25.3541,6.63081 -5.9519,-3.38358 -7.7753,-3.71064 -20.8959,-3.7481 -17.0847,-0.0487 -30.1609,2.88023 -39.7054,8.8938 -6.2373,3.92988 -14.0446,13.4949 -14.0446,17.20666 0,0.94205 -1.6319,3.63676 -3.6265,5.98824 -4.0275,4.74817 -10.2837,5.77487 -14.4999,2.37962 z m 504.9918,-8.08869 c -4.053,-3.83944 -3.3103,-6.5083 2.88,-10.34754 7.3706,-4.57129 11.7646,-10.3812 11.289,-14.92645 -0.603,-5.76131 -4.9018,-7.71906 -14.9439,-6.80567 -10.8666,0.98839 -44.0983,-1.51044 -55.9542,-4.20744 -13.6085,-3.09564 -24.3503,-8.28264 -31.2018,-15.06671 -4.7507,-4.70397 -6.9886,-8.51667 -10.6144,-18.08376 -6.148,-16.22274 -9.6291,-22.71935 -13.3466,-24.90811 -4.6099,-2.71423 -20.4884,-1.05752 -37.4735,3.90983 -23.598,6.90132 -39.257,9.54861 -64.375,10.88315 -25.247,1.34138 -50.3875,0.0922 -69.4323,-3.44986 -17.2765,-3.21321 -29.8343,-9.09973 -52.4427,-24.58261 -11.3438,-7.76855 -25.1017,-16.5342 -30.5733,-19.47925 -8.7488,-4.70904 -11.0094,-5.34836 -18.75,-5.30271 -13.2253,0.0779 -21.5583,3.38965 -32.1911,12.79345 -27.9762,24.7426 -47.2124,34.6889 -101.3838,52.42172 -35.16014,11.50954 -59.93424,15.21411 -101.41424,15.16478 -32.2935,-0.0384 -54.7626,-3.81093 -80.94086,-13.58991 -19.172,-7.16175 -36.6103,-19.12056 -34.1845,-23.44307 0.4594,-0.81867 3.6327,-1.48849 7.0517,-1.48849 7.73,0 12.5872,-2.20313 25.0643,-11.36863 10.23866,-7.52123 12.55446,-10.99095 9.54656,-14.30349 -1.5427,-1.69905 -4.0359,-0.75082 -18.56586,7.06135 -26.8633,14.44319 -43.9355,19.43369 -72.9863,21.33524 -20.4524,1.33874 -38.0507,-0.16247 -49.0165,-4.18128 -8.2178,-3.01176 -26.3994,-5.60245 -30.6755,-4.37097 -2.512,0.72344 -2.535,1.24415 -1.6347,37.03917 0.9785,38.90416 0.7931,40.37278 -5.0952,40.37278 -5.8556,0 -6.6281,-3.84726 -7.5463,-37.58136 -0.6373,-23.4146 -1.2689,-31.6569 -2.5132,-32.79418 -1.2653,-1.15647 -6.4025,0.97795 -21.5216,8.94184 -23.4563,12.35555 -40.4827,18.86883 -60.1696,23.01738 -25.7245,5.4208 -27.0399,5.99244 -35.6776,15.50507 -4.8865,5.38151 -8.0769,10.16331 -8.6295,12.93417 -0.4822,2.41785 -2.4673,6.27132 -4.4113,8.56322 -3.1909,3.76188 -4.2798,4.1671 -11.1974,4.1671 -9.1579,0 -10.8699,-2.2728 -6.0243,-7.99773 6.8063,-8.04155 7.5536,-15.93745 1.6625,-17.5658 -5.9723,-1.65079 -11.9724,5.60716 -11.9724,14.48221 0,5.63933 -3.8899,9.7047 -9.2857,9.7047 -3.7275,0 -8.2143,-2.78193 -8.2143,-5.09308 0,-0.42161 1.7424,-4.12058 3.8721,-8.21995 3.9636,-7.62933 4.2637,-14.21934 0.6476,-14.21934 -3.6428,0 -8.2698,5.71052 -9.0651,11.188 -1.0156,6.99403 -5.2217,13.89101 -9.2187,15.11628 -9.6673,2.9635 -16.0941,-0.60497 -14.4087,-8.00047 1.6621,-7.29304 13.301,-26.64637 18.626,-30.97146 12.972,-10.53615 25.468,-13.97588 56.4218,-15.531 20.0764,-1.00862 39.1774,-4.78425 55.5843,-10.98718 17.7384,-6.70626 67.4857,-36.14433 71.7769,-42.47405 2.4474,-3.61013 2.4497,-4.24349 0.2955,-82.47569 -1.194,-43.36069 -2.6697,-101.05157 -3.2793,-128.20191 -0.6097,-27.15036 -1.4085,-49.69473 -1.7752,-50.09859 -1.1885,-1.30886 -4.2909,2.49467 -6.9277,8.49331 -2.2752,5.17604 -2.5497,8.17286 -2.3538,25.70021 0.2463,22.03281 -0.7646,26.902 -7.8362,37.74655 -3.9073,5.99197 -3.9697,6.34234 -4.8257,27.12124 -0.942,22.86495 -2.735,30.51422 -9.9697,42.53336 -4.976,8.26675 -11.0305,14.48428 -12.5138,12.85073 -2.3332,-2.56954 -3.8532,-31.63265 -7.5554,-144.46275 -0.6956,-21.19993 -1.524,-44.43037 -1.8408,-51.6232 -0.6056,-13.74747 -3.2531,-92.53031 -3.5853,-106.68795 l -0.1938,-8.25971 57.63,-0.35777 57.6301,-0.35778 0.8412,18.94213 c 1.0267,23.11607 5.2194,105.31283 7.0051,137.33133 0.7178,12.87139 1.8703,37.65052 2.561,55.06475 0.6907,17.41423 2.1333,44.5912 3.2058,60.39329 1.3077,19.2691 1.5358,29.18714 0.6924,30.11598 -1.9227,2.11746 -7.1561,0.0921 -12.0905,-4.6793 -8.8588,-8.56599 -14.7766,-24.08212 -16.9418,-44.42004 -0.7319,-6.87552 -1.6186,-15.21365 -1.9703,-18.5292 -0.4989,-4.70234 -1.8496,-7.45291 -6.141,-12.50545 -7.8632,-9.25792 -9.297,-13.96418 -9.297,-30.5152 0,-15.46934 -2.2602,-25.9622 -6.9856,-32.43063 -5.8556,-8.01542 -5.9467,-6.22339 -3.7678,74.13208 1.9175,70.71398 4.1622,149.34914 4.8271,169.10016 l 0.3013,8.94802 9.375,0.86505 c 5.1562,0.47577 18.7451,0.36257 30.1975,-0.25158 19.4614,-1.04364 21.458,-1.408 30.5452,-5.57425 10.8296,-4.96502 18.2264,-11.50788 21.8478,-19.32546 5.7597,-12.43366 0.6261,-14.56722 -9.5495,-3.96878 -7.4145,7.72263 -14.9039,12.29965 -16.7675,10.24721 -0.6608,-0.72774 -1.7625,-9.05353 -2.4481,-18.50175 -1.2399,-17.08529 -2.9796,-26.28949 -6.8162,-36.06286 -1.1051,-2.81496 -2.0092,-8.14895 -2.0092,-11.8533 0,-8.80112 2.4451,-12.6688 21.3292,-33.73778 14.2293,-15.87559 17.4621,-20.9018 15.5897,-24.23829 -1.1902,-2.12088 -7.3022,-1.7788 -10.1175,0.56629 -4.0021,3.33363 -4.6867,2.45346 -3.8857,-4.99542 1.2667,-11.77885 5.7284,-24.31191 11.3672,-31.93088 4.2114,-5.69038 8.0507,-8.70452 19.5416,-15.34144 10.6744,-6.16538 14.3969,-9.00434 14.6808,-11.1964 0.2897,-2.23737 -0.5733,-3.30278 -3.624,-4.47401 -2.2024,-0.84553 -5.6256,-1.53732 -7.6071,-1.53732 -2.0885,0 -3.9127,-0.88967 -4.3403,-2.11684 -1.1108,-3.18788 2.8424,-13.29761 7.5866,-19.40152 5.9605,-7.66883 14.3865,-12.22437 31.2048,-16.87082 8.0422,-2.22185 16.0065,-5.03864 17.6984,-6.25952 3.7087,-2.67619 4.11306,-8.77023 0.9363,-14.10981 -2.1312,-3.58206 -2.1173,-3.61917 3.37316,-8.98514 6.3751,-6.23047 17.6131,-13.41135 28.8769,-18.45187 17.4618,-7.81407 47.3004,-12.32645 91.5359,-13.84263 28.9457,-0.99212 31.0812,-1.67326 32.7689,-10.45229 1.9793,-10.29576 5.8281,-17.46914 11.9877,-22.34264 3.3568,-2.65584 6.6644,-4.82879 7.3503,-4.82879 0.7437,0 1.2499,5.41764 1.254,13.42203 0.01,15.43521 1.3505,22.03998 5.61384,27.6198 2.9924,3.91654 3.2077,3.96754 20.2644,4.80046 9.6267,0.47011 20.0568,1.77747 23.6188,2.96051 10.8735,3.61147 22.1078,15.47867 23.7436,25.0812 1.606,9.42774 0.4969,9.4633 -15.263,0.4894 -13.6535,-7.77445 -15.107,-8.2957 -23.132,-8.2957 -7.6008,0 -9.0007,0.43065 -12.4578,3.83244 -5.0151,4.93494 -5.5099,13.20088 -1.0293,17.19656 2.4857,2.21673 4.3655,2.45304 14.1875,1.78361 25.7822,-1.75722 94.2423,-2.3809 96.7859,-0.88174 2.894,1.70573 4.6141,9.2131 3.3658,14.69039 -0.4513,1.98029 -3.5365,6.78533 -6.856,10.67786 -3.3194,3.89253 -7.2151,9.65154 -8.6571,12.79782 -5.1384,11.21162 -12.8007,14.90017 -26.1706,12.59828 -18.2896,-3.14893 -36.7252,1.0977 -37.5216,8.64312 -0.6857,6.49669 1.6909,7.17119 25.4152,7.21278 19.8755,0.0348 21.8355,0.25263 21.8355,2.42625 0,3.22867 -6.5262,9.06524 -12.2263,10.93427 -2.5568,0.83836 -12.2424,2.13569 -21.5237,2.88297 -24.1786,1.94674 -36.7619,6.59858 -52.1824,19.29095 l -6.5574,5.39731 -6.5676,-4.88224 c -3.61224,-2.68521 -11.06764,-6.83946 -16.56764,-9.23166 -9.0848,-3.95135 -11.5579,-4.404 -27.0205,-4.94562 -24.5067,-0.85842 -32.9057,2.21004 -47.7862,17.45824 -8.4223,8.63029 -12.0405,17.47952 -12.0561,29.48606 -0.018,13.43601 3.3208,21.18748 12.9679,30.11142 20.2065,18.69167 61.5292,31.59978 100.80414,31.48843 25.9303,-0.0736 38.1626,-4.68886 53.8057,-20.30126 7.5744,-7.5596 9.454,-8.61709 30.6514,-17.24529 36.6928,-14.93541 52.9811,-19.8748 92.3837,-28.01508 21.4975,-4.44121 37.7543,-5.41539 57.5,-3.44559 37.2188,3.71286 67.3516,16.39085 94.375,39.70703 24.9931,21.56441 38.5466,38.05385 58.344,70.98268 9.091,15.12086 13.7014,20.9928 31.8854,40.61025 24.0796,25.97794 31.366,32.08679 47.6562,39.95487 18.6791,9.02182 58.4644,20.53897 80.6346,23.34236 17.0279,2.15314 20.0304,8.10058 12.7453,25.24573 -2.054,4.83391 -4.2424,11.78262 -4.8631,15.44156 -1.4504,8.54959 -3.0133,10.071 -11.5075,11.20171 -5.6861,0.75692 -7.3764,0.49266 -9.1183,-1.42564 -2.8113,-3.09614 -2.1626,-4.75603 3.5261,-9.02095 5.6302,-4.22097 7.3777,-7.24821 6.3143,-10.93809 -1.1315,-3.92597 -8.2404,-3.66061 -12.6012,0.47038 -2.6275,2.48903 -3.596,5.00028 -4.379,11.35465 -0.7153,5.80455 -1.7857,8.85468 -3.7095,10.57035 -3.7113,3.30963 -9.1427,3.02275 -13.0619,-0.68989 z M 1379.1683,539.34842 c 0,-4.17902 -27.2524,-37.89448 -44.9019,-55.55068 -21.9445,-21.95294 -39.8645,-32.48771 -55.5263,-32.6427 -9.1104,-0.0902 -14.5249,2.15029 -19.8877,8.22919 -7.9487,9.01009 -9.0402,16.32929 -4.0726,27.30779 10.0023,22.105 39.2664,39.86089 81.2635,49.30623 19.0323,4.28045 20.3784,4.47421 32.8125,4.7229 7.0316,0.14064 10.3125,-0.29608 10.3125,-1.37273 z M 648.9775,247.00001 c 1.0943,-1.20515 0.167,-21.84218 -1.0426,-23.20247 -1.4993,-1.68608 -48.5959,0.46617 -49.6064,2.26693 -0.4444,0.79187 0.5471,2.65013 2.2034,4.12944 2.7518,2.45785 4.6274,2.64628 21.7614,2.18614 l 18.75,-0.50354 0.3777,3.58209 c 0.3625,3.43819 0.066,3.61793 -7.3709,4.47401 -4.2617,0.49056 -10.4785,0.89193 -13.8152,0.89193 -6.8376,0 -8.0677,2.3597 -3.2541,6.24225 2.3717,1.91297 5.0434,2.14729 17.0467,1.49503 7.8288,-0.42541 14.5563,-1.12823 14.95,-1.56181 z m 15.4724,-28.03979 0.3434,-21.49917 3.125,0 c 3.0874,0 3.1325,0.16819 3.75,13.99656 0.3437,7.69811 1.0434,14.45695 1.5548,15.01964 0.5114,0.56271 2.1025,-0.14565 3.5357,-1.57409 2.4087,-2.40065 2.5748,-3.81536 2.1952,-18.69449 -0.2259,-8.85352 -0.8213,-16.54771 -1.3231,-17.09818 -1.1384,-1.24889 -20.0353,-0.79158 -21.1661,0.51221 -1.1066,1.27599 0.7493,51.58651 1.9841,53.78691 0.7451,1.32773 1.5067,1.1868 3.3126,-0.61303 2.0711,-2.06427 2.3851,-4.84758 2.6884,-23.83635 z m -47.9997,-4.11389 c 1.3494,-0.94219 1.4387,-6.05615 0.4808,-27.55537 -0.6468,-14.51914 -1.5296,-26.78781 -1.9618,-27.26369 -0.4321,-0.47588 -1.9716,0.31679 -3.4211,1.76148 -2.4975,2.48908 -2.6125,3.70098 -2.1952,23.12813 0.3805,17.71431 0.1661,20.69211 -1.5772,21.90419 -1.1097,0.77153 -2.9378,1.0139 -4.0625,0.53859 -1.7041,-0.72013 -2.0449,-3.15251 -2.0449,-14.59233 0,-14.58934 -1.0044,-17.18462 -5.0788,-13.12381 -2.1093,2.10222 -2.4212,4.32209 -2.4212,17.22999 0,8.14926 0.3414,15.79674 0.7587,16.99437 0.6013,1.72554 2.7418,2.17314 10.3125,2.15644 5.2546,-0.011 10.2994,-0.54168 11.2107,-1.17799 z m 43.0306,-35.40725 c 8.7656,-0.46178 15.9375,-1.28873 15.9375,-1.83765 0,-0.54893 -1.3347,-2.3789 -2.9659,-4.06662 -2.8357,-2.93385 -3.7824,-3.05015 -21.5625,-2.64905 l -18.5966,0.41953 0,-3.44155 c 0,-3.3964 0.1676,-3.45165 12.7827,-4.21174 7.0305,-0.42362 13.218,-1.25068 13.75,-1.83789 0.532,-0.58722 -0.5834,-2.5375 -2.4786,-4.33397 -3.2736,-3.10311 -4.0855,-3.22906 -16.25,-2.52113 -7.0423,0.40984 -13.5073,0.98371 -14.3666,1.27527 -1.9692,0.66806 -2.1761,21.41602 -0.235,23.55379 0.7689,0.84673 4.8459,1.25763 9.6875,0.97632 4.598,-0.26713 15.5318,-0.86352 24.2975,-1.32531 z M 1496.759,676.3387 c -1.4248,-1.99495 -2.5907,-4.74747 -2.5907,-6.11671 0,-2.83078 4.4881,-6.77551 7.7089,-6.77551 1.184,0 4.9211,-3.09739 8.3048,-6.88309 6.4552,-7.22206 10.9969,-8.78504 13.9892,-4.8143 1.2971,1.72115 0.7057,3.08834 -3.5193,8.13612 -3.0765,3.67571 -5.4123,8.02856 -5.9257,11.04276 -1.0309,6.05184 -4.5812,9.03794 -10.7453,9.03794 -3.5142,0 -5.256,-0.87476 -7.2219,-3.62721 z M 596.3558,661.28502 c -1.7481,-1.959 -0.9484,-4.6984 3.2861,-11.25739 4.8767,-7.55372 6.435,-12.12615 4.566,-13.39822 -2.9648,-2.01798 -6.3472,1.14655 -9.503,8.89111 -5.3435,13.11293 -12.1822,17.91713 -18.0527,12.68197 -2.8867,-2.57426 -2.9141,-2.77593 -0.8501,-6.24506 1.173,-1.97169 3.8166,-4.95584 5.8745,-6.63145 4.3269,-3.52305 4.6375,-5.33903 1.4557,-8.5102 -3.1471,-3.13666 -5.5304,-2.85859 -9.4065,1.09752 -2.466,2.51695 -3.3075,4.71556 -3.3075,8.64172 0,6.70485 -2.5873,10.74883 -8.1764,12.78028 -3.6779,1.33679 -4.9346,1.23373 -7.4962,-0.61469 -2.5487,-1.83912 -3.0774,-3.33435 -3.0774,-8.70217 0,-6.18948 0.3705,-6.8719 8.2239,-15.14624 4.5231,-4.76561 11.6711,-10.58116 15.8843,-12.92344 7.1688,-3.98534 8.2447,-4.20039 16.7631,-3.35027 9.8242,0.98042 12.3476,0.17711 18.146,-5.77667 2.6848,-2.75673 3.7601,-3.14706 5.1556,-1.87152 1.6512,1.50915 2.1315,4.28037 4.0878,23.58719 1.6136,15.92392 -4.5407,25.91155 -16.7509,27.18463 -3.2367,0.33744 -6.3067,0.14075 -6.8223,-0.4371 z m -3.4088,-94.85204 c -1.1155,-1.4803 -1.4006,-8.44031 -1.0573,-25.8116 0.393,-19.88076 0.852,-24.57564 2.7968,-28.60296 3.3498,-6.93723 18.0294,-22.15217 25.1122,-26.02811 5.5078,-3.01408 6.347,-3.13422 9.2751,-1.32779 2.8567,1.76226 3.3184,3.14411 4.097,12.26191 0.4827,5.65171 0.5824,11.3703 0.2216,12.70799 -0.3607,1.33769 -2.8568,3.6687 -5.5467,5.18003 -7.5449,4.23897 -9.2044,7.95346 -7.4889,16.76243 0.7833,4.02268 1.0493,10.49613 0.5955,14.49596 -0.9772,8.61326 -5.0758,13.76466 -15.1115,18.99324 -7.4786,3.89633 -10.7291,4.24144 -12.8938,1.3689 z m 101.5495,-46.68739 c -4.9758,-3.29623 -11.2981,-6.38959 -14.0496,-6.87415 -9.2047,-1.62096 -18.2902,-6.14877 -19.8361,-9.88539 -2.0568,-4.97152 -1.8399,-17.86573 0.341,-20.26753 2.7178,-2.99314 35.0704,-4.15304 39.8772,-1.4297 5.7676,3.26769 8.2799,11.37776 8.3118,26.8313 0.015,7.3202 -0.314,14.28934 -0.7313,15.48697 -1.1906,3.41691 -4.1775,2.58791 -13.913,-3.8615 z m 753.7358,-268.61908 c -4.2961,-1.02778 -10.6796,-3.58805 -14.1855,-5.68949 -6.2418,-3.74132 -16.874,-13.88666 -15.7966,-15.07322 0.2996,-0.32997 4.4256,1.421 9.169,3.89107 7.7678,4.04511 9.7411,4.48833 19.8741,4.46385 9.6341,-0.0232 12.346,-0.58013 18.8807,-3.877 9.648,-4.86758 19.264,-15.4893 23.8712,-26.36772 3.0161,-7.12167 3.4981,-9.96679 3.4981,-20.64928 0,-10.53928 -0.4966,-13.55632 -3.3255,-20.20209 -6.3736,-14.97326 -17.8871,-25.55291 -32.7974,-30.13714 -7.1046,-2.18434 -7.3822,-2.41579 -4.0529,-3.37814 6.6768,-1.92992 20.5243,0.31556 29.0538,4.71131 9.5579,4.92572 20.0795,15.46205 24.6249,24.65923 17.716,35.84748 0.4503,78.28295 -35.6664,87.66077 -9.3981,2.44025 -12.9045,2.43841 -23.1475,-0.0125 z m -914.7929,-126.428 c -0.3609,-1.03573 -0.4852,-5.53067 -0.2762,-9.98872 l 0.3801,-8.10558 15.625,-0.76048 c 14.9812,-0.72912 16.0046,-0.97433 24.8384,-5.951614 15.4712,-8.717031 41.8292,-39.210292 50.8624,-58.84202 1.7002,-3.695098 3.6299,-6.718362 4.2881,-6.718362 0.6583,0 2.1378,2.013299 3.2879,4.474011 11.5581,24.729424 36.1003,52.023654 56.3561,62.675455 9.4843,4.98744 10.2052,5.14123 27.2421,5.81132 l 17.5,0.68831 0,8.94802 0,8.94802 -99.7239,0.35241 c -83.4293,0.29483 -99.8311,0.0447 -100.38,-1.53077 z m 144.1004,-18.49587 c 1.9712,-1.38001 0.8581,-2.91042 -5.6602,-7.782272 -6.9154,-5.168719 -27.544,-28.955562 -35.5824,-41.030271 -3.4024,-5.110702 -6.8201,-9.284302 -7.595,-9.274665 -0.7749,0.0099 -3.3777,3.57162 -5.7839,7.915557 -2.4063,4.343926 -12.5835,17.029435 -22.6162,28.190013 -10.0326,11.160574 -17.9544,20.607628 -17.6041,20.993428 0.3503,0.38582 10.1057,0.70147 21.6786,0.70147 15.9454,0 21.0665,-0.41677 21.144,-1.72077 0.056,-0.94643 0.02,-5.198157 -0.082,-9.448297 -0.1315,-5.527648 0.3986,-8.368901 1.862,-9.980481 4.9683,-5.471608 7.8736,-1.692789 8.3666,10.882299 l 0.3756,9.578939 18.75,0.74448 c 10.3125,0.40946 19.3125,0.86458 20,1.01138 0.6875,0.1468 1.9234,-0.20456 2.7465,-0.78081 z" 
    fill="#ffffff" />
</svg>